{"title":"The Silent Heroes 2015 Movies PDVDRip XviD AAC New +Sample ☻rDX☻","uid":13092442,"size":740006436,"categoryP":"video","categoryS":"movies","magnet":"?xt=urn:btih:fda66d9595de4ef41d7a12ffadae0dad3987a831&amp;dn=The+Silent+Heroes+2015+Movies+PDVDRip+XviD+AAC+New+%2BSample+%E2%98%BBrDX%E2%98%BB&amp;tr=udp%3A%2F%2Ftracker.leechers-paradise.org%3A6969&amp;tr=udp%3A%2F%2Fzer0day.ch%3A1337&amp;tr=udp%3A%2F%2Fopen.demonii.com%3A1337&amp;tr=udp%3A%2F%2Ftracker.coppersurfer.tk%3A6969&amp;tr=udp%3A%2F%2Fexodus.desync.com%3A6969","seeders":0,"leechers":1,"uploader":"basicssom","files":2,"time":1451066679,"description":"----------------------------------------------------------------\r\nThe Silent Heroes 2015 Hindi Movies PDVDRip XviD AAC New Source with Sample ~ ☻rDX☻\r\n\r\nSCREEN SHOTS &amp; POSTER:\r\n  \nhttp://doctorhosts.com/2015/12/TheSilentHeroes/11.html  \nhttp://doctorhosts.com/2015/12/TheSilentHeroes/1.html  \nhttp://doctorhosts.com/2015/12/TheSilentHeroes/2.html  \nhttp://doctorhosts.com/2015/12/TheSilentHeroes/3.html  \nhttp://doctorhosts.com/2015/12/TheSilentHeroes/4.html  \nhttp://doctorhosts.com/2015/12/TheSilentHeroes/5.html  \nhttp://doctorhosts.com/2015/12/TheSilentHeroes/6.html  \nhttp://doctorhosts.com/2015/12/TheSilentHeroes/7.html  \nhttp://doctorhosts.com/2015/12/TheSilentHeroes/8.html  \nhttp://doctorhosts.com/2015/12/TheSilentHeroes/9.html  \nhttp://doctorhosts.com/2015/12/TheSilentHeroes/10.html\r\n\r\nFormat                                   : Matroska\r\nFormat version                           : Version 4 / Version 2\r\nFile size                                : 691 MiB\r\nDuration                                 : 1h 52mn\r\nOverall bit rate                         : 857 Kbps\r\nMovie name                               : The Silent Heroes 2015 Hindi Movies PDVDRip XviD AAC New Source ~ rDX ~\r\n\r\nVideo\r\nID                                       : 1\r\nFormat                                   : MPEG-4 Visual\r\nFormat profile                           : Advanced   \r\nFormat settings, BVOP                    : Yes\r\nFormat settings, QPel                    : No\r\nFormat settings, GMC                     : No warppoints\r\nFormat settings, Matrix                  : Default (H.263)\r\nCodec ID                                 : V_MS/VFW/FOURCC / XVID\r\nCodec ID/Hint                            : XviD\r\nDuration                                 : 1h 52mn\r\nBit rate                                 : 760 Kbps\r\nWidth                                    : 640 pixels\r\nHeight                                   : 272 pixels\r\nDisplay aspect ratio                     : 2.35:1\r\nFrame rate mode                          : Constant\r\nFrame rate                               : 25.000 fps\r\nColor space                              : YUV\r\nChroma subsampling                       : 4:2:0\r\nBit depth                                : 8 bits\r\nScan type                                : Progressive\r\nCompression mode                         : Lossy\r\nBits/(Pixel*Frame)                       : 0.175\r\nStream size                              : 612 MiB (89%)\r\nTitle                                    : ~ rDX ~\r\nWriting library                          : XviD 67\r\nDefault                                  : Yes\r\nForced                                   : No\r\n\r\nAudio\r\nID                                       : 2\r\nFormat                                   : MPEG Audio\r\nFormat version                           : Version 1\r\nFormat profile                           : Layer 3\r\nCodec ID                                 : A_MPEG/L3\r\nCodec ID/Hint                            : MP3\r\nDuration                                 : 1h 52mn\r\nBit rate mode                            : Constant\r\nBit rate                                 : 80.0 Kbps\r\nChannel(s)                               : 2 channels\r\nSampling rate                            : 48.0 KHz\r\nCompression mode                         : Lossy\r\nStream size                              : 64.4 MiB (9%)\r\nTitle                                    : ~ rDX ~\r\nWriting library                          : LAME3.99r\r\nEncoding settings                        : -m s -V 4 -q 3 -lowpass 13.5 -b 80\r\nDefault                                  : Yes\r\nForced                                   : No\r\n\r\nIMDB                                      \nhttp://www.imdb.com/title/tt4309284/","torrent":{"xt":"urn:btih:fda66d9595de4ef41d7a12ffadae0dad3987a831","amp;dn":"The+Silent+Heroes+2015+Movies+PDVDRip+XviD+AAC+New+%2BSample+%E2%98%BBrDX%E2%98%BB","amp;tr":["udp%3A%2F%2Ftracker.leechers-paradise.org%3A6969","udp%3A%2F%2Fzer0day.ch%3A1337","udp%3A%2F%2Fopen.demonii.com%3A1337","udp%3A%2F%2Ftracker.coppersurfer.tk%3A6969","udp%3A%2F%2Fexodus.desync.com%3A6969"],"infoHash":"fda66d9595de4ef41d7a12ffadae0dad3987a831","infoHashBuffer":{"type":"Buffer","data":[253,166,109,149,149,222,78,244,29,122,18,255,173,174,13,173,57,135,168,49]},"announce":[],"urlList":[]}}